<svg width="24" height="26" viewBox="0 0 24 26" fill="none" xmlns="http://www.w3.org/2000/svg">
<path d="M17.5628 1.08894L14.7856 1.08398C11.6654 1.08398 9.64903 3.38616 9.64903 6.9494V9.65375H6.85662C6.61532 9.65375 6.41992 9.87144 6.41992 10.14V14.0583C6.41992 14.3268 6.61554 14.5442 6.85662 14.5442H9.64903V24.4313C9.64903 24.6999 9.84443 24.9173 10.0857 24.9173H13.729C13.9703 24.9173 14.1657 24.6996 14.1657 24.4313V14.5442H17.4307C17.672 14.5442 17.8674 14.3268 17.8674 14.0583L17.8688 10.14C17.8688 10.011 17.8226 9.88756 17.7409 9.79632C17.6591 9.70507 17.5477 9.65375 17.4318 9.65375H14.1657V7.36124C14.1657 6.25937 14.4017 5.7 15.6915 5.7L17.5624 5.69925C17.8035 5.69925 17.9989 5.48156 17.9989 5.21328V1.57492C17.9989 1.30689 17.8037 1.08944 17.5628 1.08894Z" fill="#787A80"/>
</svg>
