<svg width="24" height="26" viewBox="0 0 24 26" fill="none" xmlns="http://www.w3.org/2000/svg">
<path d="M22.5 6.25369C21.7271 6.60895 20.8978 6.84989 20.0264 6.95745C20.9161 6.40478 21.5972 5.52818 21.92 4.48684C21.0854 4.99864 20.1642 5.37028 19.1826 5.57174C18.3966 4.70193 17.2785 4.16016 16.0384 4.16016C13.6593 4.16016 11.7303 6.16114 11.7303 8.62766C11.7303 8.97748 11.7683 9.31915 11.8418 9.64586C8.26201 9.45935 5.08768 7.68026 2.96314 4.97686C2.59176 5.6357 2.38049 6.4034 2.38049 7.22288C2.38049 8.77331 3.14161 10.1413 4.2964 10.9417C3.5904 10.9172 2.92639 10.7157 2.34508 10.3809V10.4367C2.34508 12.601 3.83056 14.4073 5.80024 14.8185C5.43936 14.9192 5.05882 14.975 4.66514 14.975C4.38696 14.975 4.11794 14.9464 3.85417 14.892C4.40267 16.6683 5.99315 17.9601 7.87756 17.9955C6.40388 19.1934 4.54573 19.9053 2.52749 19.9053C2.17976 19.9053 1.83724 19.8835 1.5 19.8441C3.40671 21.1141 5.67036 21.8546 8.10327 21.8546C16.028 21.8546 20.3597 15.0458 20.3597 9.14086L20.3453 8.56235C21.1917 7.93614 21.9239 7.14937 22.5 6.25369Z" fill="#787A80"/>
</svg>
